<?xml version="1.0" encoding="utf-8"?>
<!-- Generator: Adobe Illustrator 22.0.0, SVG Export Plug-In . SVG Version: 6.00 Build 0)  -->
<svg version="1.0" id="Layer_1" xmlns="http://www.w3.org/2000/svg" xmlns:xlink="http://www.w3.org/1999/xlink" x="0px" y="0px"
	 viewBox="0 0 12 16" style="enable-background:new 0 0 12 16;" xml:space="preserve">
<style type="text/css">
	.st0{fill:#AEBCCD;}
</style>
<path class="st0" d="M6,5H2V4h4V5z M2,8h7V7H2V8z M2,10h7V9H2V10z M2,12h7v-1H2V12z M12,4.5V14c0,0.6-0.4,1-1,1H1c-0.6,0-1-0.4-1-1
	V2c0-0.5,0.4-1,1-1h7.5L12,4.5z M11,5L8,2H1v12h10V5z"/>
</svg>
